<svg width="48" height="49" viewBox="0 0 48 49" fill="none" xmlns="http://www.w3.org/2000/svg">
<circle cx="24" cy="25" r="24" fill="white"/>
<g filter="url(#filter0_f_1_13)">
<circle cx="24" cy="25" r="10" fill="#E4EBFF"/>
</g>
<mask id="path-3-inside-1_1_13" fill="white">
<path fill-rule="evenodd" clip-rule="evenodd" d="M22.5257 15.9465H24.7611C25.9956 15.9465 26.9964 16.9473 26.9964 18.1819V20.4169H20.2903V18.1819C20.2903 16.9473 21.2911 15.9465 22.5257 15.9465ZM19.1727 20.4169V18.1819C19.1727 16.3301 20.6739 14.8289 22.5257 14.8289H24.7611C26.6129 14.8289 28.1141 16.3301 28.1141 18.1819V20.4169H28.3556C29.5229 20.4169 30.4937 21.3151 30.5842 22.4789L31.2797 31.4204C31.3807 32.7193 30.3539 33.8291 29.0511 33.8291H18.2355C16.9326 33.8291 15.9058 32.7193 16.0069 31.4204L16.7023 22.4789C16.7928 21.3151 17.7636 20.4169 18.9309 20.4169H19.1727ZM19.1727 21.5346H18.9309C18.3473 21.5346 17.8619 21.9837 17.8166 22.5656L17.1212 31.507C17.0707 32.1565 17.5841 32.7114 18.2355 32.7114H29.0511C29.7025 32.7114 30.2159 32.1565 30.1654 31.507L29.4699 22.5656C29.4247 21.9837 28.9393 21.5346 28.3556 21.5346H28.1141V21.5349H19.1727V21.5346Z"/>
</mask>
<path fill-rule="evenodd" clip-rule="evenodd" d="M22.5257 15.9465H24.7611C25.9956 15.9465 26.9964 16.9473 26.9964 18.1819V20.4169H20.2903V18.1819C20.2903 16.9473 21.2911 15.9465 22.5257 15.9465ZM19.1727 20.4169V18.1819C19.1727 16.3301 20.6739 14.8289 22.5257 14.8289H24.7611C26.6129 14.8289 28.1141 16.3301 28.1141 18.1819V20.4169H28.3556C29.5229 20.4169 30.4937 21.3151 30.5842 22.4789L31.2797 31.4204C31.3807 32.7193 30.3539 33.8291 29.0511 33.8291H18.2355C16.9326 33.8291 15.9058 32.7193 16.0069 31.4204L16.7023 22.4789C16.7928 21.3151 17.7636 20.4169 18.9309 20.4169H19.1727ZM19.1727 21.5346H18.9309C18.3473 21.5346 17.8619 21.9837 17.8166 22.5656L17.1212 31.507C17.0707 32.1565 17.5841 32.7114 18.2355 32.7114H29.0511C29.7025 32.7114 30.2159 32.1565 30.1654 31.507L29.4699 22.5656C29.4247 21.9837 28.9393 21.5346 28.3556 21.5346H28.1141V21.5349H19.1727V21.5346Z" fill="#253B80"/>
<path d="M26.9964 20.4169V21.4169H27.9964V20.4169H26.9964ZM20.2903 20.4169H19.2903V21.4169H20.2903V20.4169ZM19.1727 20.4169V21.4169H20.1727V20.4169H19.1727ZM28.1141 20.4169H27.1141V21.4169H28.1141V20.4169ZM30.5842 22.4789L31.5812 22.4014V22.4014L30.5842 22.4789ZM31.2797 31.4204L30.2827 31.4979L31.2797 31.4204ZM16.0069 31.4204L15.0099 31.3428L16.0069 31.4204ZM16.7023 22.4789L17.6993 22.5565L16.7023 22.4789ZM19.1727 21.5346H20.1727V20.5346H19.1727V21.5346ZM17.8166 22.5656L16.8196 22.4881L17.8166 22.5656ZM17.1212 31.507L16.1242 31.4295H16.1242L17.1212 31.507ZM30.1654 31.507L29.1684 31.5846V31.5846L30.1654 31.507ZM29.4699 22.5656L30.4669 22.4881V22.4881L29.4699 22.5656ZM28.1141 21.5346V20.5346H27.1141V21.5346H28.1141ZM28.1141 21.5349V22.5349H29.1141V21.5349H28.1141ZM19.1727 21.5349H18.1727V22.5349H19.1727V21.5349ZM24.7611 14.9465H22.5257V16.9465H24.7611V14.9465ZM27.9964 18.1819C27.9964 16.3951 26.5479 14.9465 24.7611 14.9465V16.9465C25.4433 16.9465 25.9964 17.4996 25.9964 18.1819H27.9964ZM27.9964 20.4169V18.1819H25.9964V20.4169H27.9964ZM26.9964 19.4169H20.2903V21.4169H26.9964V19.4169ZM19.2903 18.1819V20.4169H21.2903V18.1819H19.2903ZM22.5257 14.9465C20.7389 14.9465 19.2903 16.3951 19.2903 18.1819H21.2903C21.2903 17.4996 21.8434 16.9465 22.5257 16.9465V14.9465ZM18.1727 18.1819V20.4169H20.1727V18.1819H18.1727ZM22.5257 13.8289C20.1216 13.8289 18.1727 15.7778 18.1727 18.1819H20.1727C20.1727 16.8823 21.2261 15.8289 22.5257 15.8289V13.8289ZM24.7611 13.8289H22.5257V15.8289H24.7611V13.8289ZM29.1141 18.1819C29.1141 15.7778 27.1652 13.8289 24.7611 13.8289V15.8289C26.0606 15.8289 27.1141 16.8823 27.1141 18.1819H29.1141ZM29.1141 20.4169V18.1819H27.1141V20.4169H29.1141ZM28.3556 19.4169H28.1141V21.4169H28.3556V19.4169ZM31.5812 22.4014C31.4502 20.7169 30.0451 19.4169 28.3556 19.4169V21.4169C29.0007 21.4169 29.5372 21.9133 29.5873 22.5565L31.5812 22.4014ZM32.2767 31.3428L31.5812 22.4014L29.5873 22.5565L30.2827 31.4979L32.2767 31.3428ZM29.0511 34.8291C30.9368 34.8291 32.4229 33.2229 32.2767 31.3428L30.2827 31.4979C30.3385 32.2158 29.7711 32.8291 29.0511 32.8291V34.8291ZM18.2355 34.8291H29.0511V32.8291H18.2355V34.8291ZM15.0099 31.3428C14.8637 33.2229 16.3498 34.8291 18.2355 34.8291V32.8291C17.5155 32.8291 16.948 32.2158 17.0039 31.4979L15.0099 31.3428ZM15.7053 22.4014L15.0099 31.3428L17.0039 31.4979L17.6993 22.5565L15.7053 22.4014ZM18.9309 19.4169C17.2414 19.4169 15.8363 20.7169 15.7053 22.4014L17.6993 22.5565C17.7493 21.9133 18.2858 21.4169 18.9309 21.4169V19.4169ZM19.1727 19.4169H18.9309V21.4169H19.1727V19.4169ZM19.1727 20.5346H18.9309V22.5346H19.1727V20.5346ZM18.9309 20.5346C17.8251 20.5346 16.9054 21.3855 16.8196 22.4881L18.8136 22.6431C18.8184 22.5819 18.8695 22.5346 18.9309 22.5346V20.5346ZM16.8196 22.4881L16.1242 31.4295L18.1182 31.5846L18.8136 22.6431L16.8196 22.4881ZM16.1242 31.4295C16.0285 32.6601 17.0012 33.7114 18.2355 33.7114V31.7114C18.1669 31.7114 18.1129 31.653 18.1182 31.5846L16.1242 31.4295ZM18.2355 33.7114H29.0511V31.7114H18.2355V33.7114ZM29.0511 33.7114C30.2853 33.7114 31.2581 32.6601 31.1624 31.4295L29.1684 31.5846C29.1737 31.653 29.1197 31.7114 29.0511 31.7114V33.7114ZM31.1624 31.4295L30.4669 22.4881L28.4729 22.6431L29.1684 31.5846L31.1624 31.4295ZM30.4669 22.4881C30.3812 21.3855 29.4615 20.5346 28.3556 20.5346V22.5346C28.4171 22.5346 28.4682 22.5819 28.4729 22.6431L30.4669 22.4881ZM28.3556 20.5346H28.1141V22.5346H28.3556V20.5346ZM29.1141 21.5349V21.5346H27.1141V21.5349H29.1141ZM19.1727 22.5349H28.1141V20.5349H19.1727V22.5349ZM18.1727 21.5346V21.5349H20.1727V21.5346H18.1727Z" fill="#253B80" mask="url(#path-3-inside-1_1_13)"/>
<circle cx="38" cy="10" r="10" fill="#253B80"/>
<path d="M37.996 12.296H34.288V10.784L37.756 5.504H39.724V10.784H40.816V12.296H39.724V14H37.996V12.296ZM37.996 7.856H37.972L36.088 10.784H37.996V7.856Z" fill="white"/>
<defs>
<filter id="filter0_f_1_13" x="4" y="5" width="40" height="40" filterUnits="userSpaceOnUse" color-interpolation-filters="sRGB">
<feFlood flood-opacity="0" result="BackgroundImageFix"/>
<feBlend mode="normal" in="SourceGraphic" in2="BackgroundImageFix" result="shape"/>
<feGaussianBlur stdDeviation="5" result="effect1_foregroundBlur_1_13"/>
</filter>
</defs>
</svg>
